<mxfile host="app.diagrams.net" modified="2023-07-16T09:16:43.435Z" agent="Mozilla/5.0 (Windows NT 10.0; Win64; x64) AppleWebKit/537.36 (KHTML, like Gecko) Chrome/97.0.4692.71 Safari/537.36" etag="jnvnZYyNGoW1B_QuISLI" version="21.6.1" type="github">
  <diagram name="bind" id="0WLJN7CvBc_NALZX274n">
    <mxGraphModel dx="1050" dy="625" grid="0" gridSize="10" guides="1" tooltips="1" connect="1" arrows="1" fold="1" page="1" pageScale="1" pageWidth="2336" pageHeight="1654" math="0" shadow="0">
      <root>
        <mxCell id="0" />
        <mxCell id="1" parent="0" />
        <mxCell id="E96cA3zgoJfYFh5Hif7b-1" value="&lt;font style=&quot;font-size: 18px;&quot; face=&quot;Comic Sans MS&quot;&gt;main&lt;/font&gt;" style="rounded=1;whiteSpace=wrap;html=1;fillColor=none;strokeColor=none;fontSize=18;" vertex="1" parent="1">
          <mxGeometry x="250" y="10" width="120" height="60" as="geometry" />
        </mxCell>
        <mxCell id="E96cA3zgoJfYFh5Hif7b-2" value="" style="rounded=1;whiteSpace=wrap;html=1;arcSize=6;" vertex="1" parent="1">
          <mxGeometry x="160" y="70" width="290" height="340" as="geometry" />
        </mxCell>
        <mxCell id="E96cA3zgoJfYFh5Hif7b-15" value="" style="edgeStyle=orthogonalEdgeStyle;rounded=0;orthogonalLoop=1;jettySize=auto;html=1;" edge="1" parent="1" source="E96cA3zgoJfYFh5Hif7b-6" target="E96cA3zgoJfYFh5Hif7b-14">
          <mxGeometry relative="1" as="geometry" />
        </mxCell>
        <mxCell id="E96cA3zgoJfYFh5Hif7b-6" value="&lt;font style=&quot;font-size: 16px;&quot; face=&quot;Comic Sans MS&quot;&gt;变量a&lt;/font&gt;" style="rounded=1;whiteSpace=wrap;html=1;" vertex="1" parent="1">
          <mxGeometry x="170" y="80" width="120" height="60" as="geometry" />
        </mxCell>
        <mxCell id="E96cA3zgoJfYFh5Hif7b-11" value="" style="edgeStyle=orthogonalEdgeStyle;rounded=0;orthogonalLoop=1;jettySize=auto;html=1;" edge="1" parent="1" source="E96cA3zgoJfYFh5Hif7b-7" target="E96cA3zgoJfYFh5Hif7b-10">
          <mxGeometry relative="1" as="geometry" />
        </mxCell>
        <mxCell id="E96cA3zgoJfYFh5Hif7b-7" value="&lt;font style=&quot;font-size: 16px;&quot; face=&quot;Comic Sans MS&quot;&gt;变量n&lt;/font&gt;" style="rounded=1;whiteSpace=wrap;html=1;" vertex="1" parent="1">
          <mxGeometry x="170" y="160" width="120" height="60" as="geometry" />
        </mxCell>
        <mxCell id="E96cA3zgoJfYFh5Hif7b-13" value="" style="edgeStyle=orthogonalEdgeStyle;rounded=0;orthogonalLoop=1;jettySize=auto;html=1;" edge="1" parent="1" source="E96cA3zgoJfYFh5Hif7b-8" target="E96cA3zgoJfYFh5Hif7b-12">
          <mxGeometry relative="1" as="geometry" />
        </mxCell>
        <mxCell id="E96cA3zgoJfYFh5Hif7b-8" value="&lt;font style=&quot;font-size: 16px;&quot; face=&quot;Comic Sans MS&quot;&gt;变量m&lt;/font&gt;" style="rounded=1;whiteSpace=wrap;html=1;" vertex="1" parent="1">
          <mxGeometry x="170" y="240" width="120" height="60" as="geometry" />
        </mxCell>
        <mxCell id="E96cA3zgoJfYFh5Hif7b-35" style="edgeStyle=orthogonalEdgeStyle;rounded=0;orthogonalLoop=1;jettySize=auto;html=1;exitX=1;exitY=0.5;exitDx=0;exitDy=0;entryX=0.997;entryY=0.62;entryDx=0;entryDy=0;entryPerimeter=0;startArrow=classic;startFill=1;strokeColor=#FF0000;" edge="1" parent="1" source="E96cA3zgoJfYFh5Hif7b-10" target="E96cA3zgoJfYFh5Hif7b-17">
          <mxGeometry relative="1" as="geometry" />
        </mxCell>
        <mxCell id="E96cA3zgoJfYFh5Hif7b-10" value="&lt;font style=&quot;font-size: 16px;&quot; face=&quot;Comic Sans MS&quot;&gt;10&lt;/font&gt;" style="whiteSpace=wrap;html=1;rounded=1;" vertex="1" parent="1">
          <mxGeometry x="320" y="160" width="120" height="60" as="geometry" />
        </mxCell>
        <mxCell id="E96cA3zgoJfYFh5Hif7b-36" style="edgeStyle=orthogonalEdgeStyle;rounded=0;orthogonalLoop=1;jettySize=auto;html=1;exitX=1;exitY=0.5;exitDx=0;exitDy=0;entryX=1;entryY=0.75;entryDx=0;entryDy=0;strokeColor=#3333FF;" edge="1" parent="1" source="E96cA3zgoJfYFh5Hif7b-12" target="E96cA3zgoJfYFh5Hif7b-17">
          <mxGeometry relative="1" as="geometry">
            <Array as="points">
              <mxPoint x="470" y="270" />
              <mxPoint x="470" y="365" />
            </Array>
          </mxGeometry>
        </mxCell>
        <mxCell id="E96cA3zgoJfYFh5Hif7b-12" value="&lt;font style=&quot;font-size: 16px;&quot;&gt;10&lt;/font&gt;" style="whiteSpace=wrap;html=1;rounded=1;" vertex="1" parent="1">
          <mxGeometry x="320" y="240" width="120" height="60" as="geometry" />
        </mxCell>
        <mxCell id="E96cA3zgoJfYFh5Hif7b-19" style="edgeStyle=orthogonalEdgeStyle;rounded=0;orthogonalLoop=1;jettySize=auto;html=1;exitX=1;exitY=0.75;exitDx=0;exitDy=0;" edge="1" parent="1" source="E96cA3zgoJfYFh5Hif7b-14">
          <mxGeometry relative="1" as="geometry">
            <mxPoint x="480" y="125" as="targetPoint" />
          </mxGeometry>
        </mxCell>
        <mxCell id="E96cA3zgoJfYFh5Hif7b-14" value="&lt;div style=&quot;text-align: left;&quot;&gt;&lt;span style=&quot;font-size: 16px; font-family: &amp;quot;Comic Sans MS&amp;quot;; background-color: initial;&quot;&gt;public区&lt;/span&gt;&lt;/div&gt;&lt;font face=&quot;Comic Sans MS&quot; style=&quot;font-size: 16px;&quot;&gt;&lt;div style=&quot;&quot;&gt;&lt;span style=&quot;background-color: initial;&quot;&gt;display_del()&lt;/span&gt;&lt;/div&gt;&lt;/font&gt;" style="whiteSpace=wrap;html=1;rounded=1;align=center;" vertex="1" parent="1">
          <mxGeometry x="320" y="80" width="120" height="60" as="geometry" />
        </mxCell>
        <mxCell id="E96cA3zgoJfYFh5Hif7b-18" value="" style="edgeStyle=orthogonalEdgeStyle;rounded=0;orthogonalLoop=1;jettySize=auto;html=1;" edge="1" parent="1" source="E96cA3zgoJfYFh5Hif7b-16" target="E96cA3zgoJfYFh5Hif7b-17">
          <mxGeometry relative="1" as="geometry" />
        </mxCell>
        <mxCell id="E96cA3zgoJfYFh5Hif7b-16" value="&lt;font style=&quot;font-size: 16px;&quot; face=&quot;Comic Sans MS&quot;&gt;bind列表&lt;/font&gt;" style="rounded=1;whiteSpace=wrap;html=1;" vertex="1" parent="1">
          <mxGeometry x="170" y="320" width="120" height="60" as="geometry" />
        </mxCell>
        <mxCell id="E96cA3zgoJfYFh5Hif7b-17" value="&lt;font style=&quot;font-size: 14px;&quot; face=&quot;Comic Sans MS&quot;&gt;placeholders::_2&lt;br&gt;placeholders::_1&lt;br&gt;ref(n)&lt;br&gt;m&lt;/font&gt;" style="whiteSpace=wrap;html=1;rounded=1;" vertex="1" parent="1">
          <mxGeometry x="320" y="320" width="120" height="60" as="geometry" />
        </mxCell>
        <mxCell id="E96cA3zgoJfYFh5Hif7b-21" value="display_del" style="rounded=1;whiteSpace=wrap;html=1;fillColor=none;strokeColor=none;fontSize=18;fontFamily=Comic Sans MS;" vertex="1" parent="1">
          <mxGeometry x="565" y="10" width="120" height="60" as="geometry" />
        </mxCell>
        <mxCell id="E96cA3zgoJfYFh5Hif7b-22" value="" style="rounded=1;whiteSpace=wrap;html=1;arcSize=5;" vertex="1" parent="1">
          <mxGeometry x="480" y="70" width="290" height="340" as="geometry" />
        </mxCell>
        <mxCell id="E96cA3zgoJfYFh5Hif7b-26" value="" style="edgeStyle=orthogonalEdgeStyle;rounded=0;orthogonalLoop=1;jettySize=auto;html=1;" edge="1" parent="1" source="E96cA3zgoJfYFh5Hif7b-24" target="E96cA3zgoJfYFh5Hif7b-25">
          <mxGeometry relative="1" as="geometry" />
        </mxCell>
        <mxCell id="E96cA3zgoJfYFh5Hif7b-24" value="&lt;font style=&quot;font-size: 16px;&quot; face=&quot;Comic Sans MS&quot;&gt;类地址&lt;/font&gt;" style="rounded=1;whiteSpace=wrap;html=1;" vertex="1" parent="1">
          <mxGeometry x="490" y="80" width="120" height="60" as="geometry" />
        </mxCell>
        <mxCell id="E96cA3zgoJfYFh5Hif7b-25" value="&lt;font style=&quot;font-size: 16px;&quot; face=&quot;Comic Sans MS&quot;&gt;&amp;amp;a&lt;/font&gt;" style="rounded=1;whiteSpace=wrap;html=1;" vertex="1" parent="1">
          <mxGeometry x="640" y="80" width="120" height="60" as="geometry" />
        </mxCell>
        <mxCell id="E96cA3zgoJfYFh5Hif7b-29" value="" style="edgeStyle=orthogonalEdgeStyle;rounded=0;orthogonalLoop=1;jettySize=auto;html=1;" edge="1" parent="1" source="E96cA3zgoJfYFh5Hif7b-27" target="E96cA3zgoJfYFh5Hif7b-28">
          <mxGeometry relative="1" as="geometry">
            <Array as="points">
              <mxPoint x="620" y="190" />
              <mxPoint x="620" y="280" />
            </Array>
          </mxGeometry>
        </mxCell>
        <mxCell id="E96cA3zgoJfYFh5Hif7b-27" value="&lt;font style=&quot;font-size: 16px;&quot; face=&quot;Comic Sans MS&quot;&gt;形参列表&lt;/font&gt;" style="rounded=1;whiteSpace=wrap;html=1;" vertex="1" parent="1">
          <mxGeometry x="490" y="160" width="120" height="60" as="geometry" />
        </mxCell>
        <mxCell id="E96cA3zgoJfYFh5Hif7b-28" value="" style="whiteSpace=wrap;html=1;rounded=1;" vertex="1" parent="1">
          <mxGeometry x="630" y="160" width="130" height="250" as="geometry" />
        </mxCell>
        <mxCell id="E96cA3zgoJfYFh5Hif7b-30" value="&lt;font face=&quot;Comic Sans MS&quot; style=&quot;font-size: 14px;&quot;&gt;placeholders::_2&lt;/font&gt;" style="whiteSpace=wrap;html=1;rounded=1;" vertex="1" parent="1">
          <mxGeometry x="640" y="170" width="112.5" height="50" as="geometry" />
        </mxCell>
        <mxCell id="E96cA3zgoJfYFh5Hif7b-31" value="&lt;font face=&quot;Comic Sans MS&quot; style=&quot;font-size: 14px;&quot;&gt;placeholders::_1&lt;/font&gt;" style="whiteSpace=wrap;html=1;rounded=1;" vertex="1" parent="1">
          <mxGeometry x="640" y="230" width="112.5" height="50" as="geometry" />
        </mxCell>
        <mxCell id="E96cA3zgoJfYFh5Hif7b-32" value="&lt;font face=&quot;Comic Sans MS&quot; style=&quot;font-size: 14px;&quot;&gt;引用n&lt;br&gt;进来10，结束30&lt;br&gt;&lt;/font&gt;" style="whiteSpace=wrap;html=1;rounded=1;" vertex="1" parent="1">
          <mxGeometry x="640" y="290" width="112.5" height="50" as="geometry" />
        </mxCell>
        <mxCell id="E96cA3zgoJfYFh5Hif7b-33" value="&lt;font face=&quot;Comic Sans MS&quot; style=&quot;font-size: 14px;&quot;&gt;引用m&lt;br&gt;进来10，结束30&lt;br&gt;&lt;/font&gt;" style="whiteSpace=wrap;html=1;rounded=1;" vertex="1" parent="1">
          <mxGeometry x="638.75" y="350" width="112.5" height="50" as="geometry" />
        </mxCell>
        <mxCell id="E96cA3zgoJfYFh5Hif7b-37" style="edgeStyle=orthogonalEdgeStyle;rounded=0;orthogonalLoop=1;jettySize=auto;html=1;exitX=0.75;exitY=1;exitDx=0;exitDy=0;entryX=0;entryY=0.5;entryDx=0;entryDy=0;startArrow=classic;startFill=1;strokeColor=#FF0000;" edge="1" parent="1" source="E96cA3zgoJfYFh5Hif7b-17" target="E96cA3zgoJfYFh5Hif7b-33">
          <mxGeometry relative="1" as="geometry">
            <Array as="points">
              <mxPoint x="410" y="400" />
              <mxPoint x="550" y="400" />
              <mxPoint x="550" y="375" />
            </Array>
          </mxGeometry>
        </mxCell>
        <mxCell id="E96cA3zgoJfYFh5Hif7b-38" style="edgeStyle=orthogonalEdgeStyle;rounded=0;orthogonalLoop=1;jettySize=auto;html=1;exitX=0.5;exitY=1;exitDx=0;exitDy=0;startArrow=classic;startFill=1;strokeColor=#FF0000;" edge="1" parent="1" source="E96cA3zgoJfYFh5Hif7b-17" target="E96cA3zgoJfYFh5Hif7b-32">
          <mxGeometry relative="1" as="geometry">
            <Array as="points">
              <mxPoint x="380" y="390" />
              <mxPoint x="540" y="390" />
              <mxPoint x="540" y="315" />
            </Array>
          </mxGeometry>
        </mxCell>
        <mxCell id="E96cA3zgoJfYFh5Hif7b-40" value="" style="endArrow=classic;startArrow=classic;html=1;rounded=0;strokeColor=#FF0000;" edge="1" parent="1">
          <mxGeometry width="50" height="50" relative="1" as="geometry">
            <mxPoint x="170" y="450" as="sourcePoint" />
            <mxPoint x="240" y="450" as="targetPoint" />
          </mxGeometry>
        </mxCell>
        <mxCell id="E96cA3zgoJfYFh5Hif7b-41" value="" style="endArrow=classic;startArrow=none;html=1;rounded=0;startFill=0;strokeColor=#3333FF;" edge="1" parent="1">
          <mxGeometry width="50" height="50" relative="1" as="geometry">
            <mxPoint x="170" y="470" as="sourcePoint" />
            <mxPoint x="240" y="470" as="targetPoint" />
          </mxGeometry>
        </mxCell>
        <mxCell id="E96cA3zgoJfYFh5Hif7b-42" value="&lt;font style=&quot;font-size: 18px;&quot; face=&quot;Comic Sans MS&quot;&gt;红色双向箭头代表引用&lt;br&gt;蓝色单项箭头代表值传递&lt;br&gt;&lt;/font&gt;" style="rounded=1;whiteSpace=wrap;html=1;fillColor=none;strokeColor=none;fontSize=18;align=left;" vertex="1" parent="1">
          <mxGeometry x="245" y="430" width="205" height="60" as="geometry" />
        </mxCell>
        <mxCell id="E96cA3zgoJfYFh5Hif7b-43" value="&lt;font style=&quot;font-size: 14px;&quot; face=&quot;Comic Sans MS&quot;&gt;第一次bind调用函数指针，n和m在display_del中都为30，且传递到bind所在的列表中，但是m为值传递，所以传递不到对应的main函数的m&lt;/font&gt;" style="rounded=1;whiteSpace=wrap;html=1;align=left;" vertex="1" parent="1">
          <mxGeometry x="462.5" y="420" width="297.5" height="80" as="geometry" />
        </mxCell>
        <mxCell id="E96cA3zgoJfYFh5Hif7b-44" value="&lt;font style=&quot;font-size: 18px;&quot; face=&quot;Comic Sans MS&quot;&gt;main&lt;/font&gt;" style="rounded=1;whiteSpace=wrap;html=1;fillColor=none;strokeColor=none;fontSize=18;" vertex="1" parent="1">
          <mxGeometry x="920" y="40" width="120" height="60" as="geometry" />
        </mxCell>
        <mxCell id="E96cA3zgoJfYFh5Hif7b-45" value="" style="rounded=1;whiteSpace=wrap;html=1;arcSize=6;" vertex="1" parent="1">
          <mxGeometry x="830" y="100" width="290" height="340" as="geometry" />
        </mxCell>
        <mxCell id="E96cA3zgoJfYFh5Hif7b-46" value="" style="edgeStyle=orthogonalEdgeStyle;rounded=0;orthogonalLoop=1;jettySize=auto;html=1;" edge="1" source="E96cA3zgoJfYFh5Hif7b-47" target="E96cA3zgoJfYFh5Hif7b-57" parent="1">
          <mxGeometry relative="1" as="geometry" />
        </mxCell>
        <mxCell id="E96cA3zgoJfYFh5Hif7b-47" value="&lt;font style=&quot;font-size: 16px;&quot; face=&quot;Comic Sans MS&quot;&gt;变量a&lt;/font&gt;" style="rounded=1;whiteSpace=wrap;html=1;" vertex="1" parent="1">
          <mxGeometry x="840" y="110" width="120" height="60" as="geometry" />
        </mxCell>
        <mxCell id="E96cA3zgoJfYFh5Hif7b-48" value="" style="edgeStyle=orthogonalEdgeStyle;rounded=0;orthogonalLoop=1;jettySize=auto;html=1;" edge="1" source="E96cA3zgoJfYFh5Hif7b-49" target="E96cA3zgoJfYFh5Hif7b-53" parent="1">
          <mxGeometry relative="1" as="geometry" />
        </mxCell>
        <mxCell id="E96cA3zgoJfYFh5Hif7b-49" value="&lt;font style=&quot;font-size: 16px;&quot; face=&quot;Comic Sans MS&quot;&gt;变量n&lt;/font&gt;" style="rounded=1;whiteSpace=wrap;html=1;" vertex="1" parent="1">
          <mxGeometry x="840" y="190" width="120" height="60" as="geometry" />
        </mxCell>
        <mxCell id="E96cA3zgoJfYFh5Hif7b-50" value="" style="edgeStyle=orthogonalEdgeStyle;rounded=0;orthogonalLoop=1;jettySize=auto;html=1;" edge="1" source="E96cA3zgoJfYFh5Hif7b-51" target="E96cA3zgoJfYFh5Hif7b-55" parent="1">
          <mxGeometry relative="1" as="geometry" />
        </mxCell>
        <mxCell id="E96cA3zgoJfYFh5Hif7b-51" value="&lt;font style=&quot;font-size: 16px;&quot; face=&quot;Comic Sans MS&quot;&gt;变量m&lt;/font&gt;" style="rounded=1;whiteSpace=wrap;html=1;" vertex="1" parent="1">
          <mxGeometry x="840" y="270" width="120" height="60" as="geometry" />
        </mxCell>
        <mxCell id="E96cA3zgoJfYFh5Hif7b-52" style="edgeStyle=orthogonalEdgeStyle;rounded=0;orthogonalLoop=1;jettySize=auto;html=1;exitX=1;exitY=0.5;exitDx=0;exitDy=0;entryX=0.997;entryY=0.62;entryDx=0;entryDy=0;entryPerimeter=0;startArrow=classic;startFill=1;strokeColor=#FF0000;" edge="1" source="E96cA3zgoJfYFh5Hif7b-53" target="E96cA3zgoJfYFh5Hif7b-60" parent="1">
          <mxGeometry relative="1" as="geometry" />
        </mxCell>
        <mxCell id="E96cA3zgoJfYFh5Hif7b-53" value="&lt;font style=&quot;font-size: 16px;&quot; face=&quot;Comic Sans MS&quot;&gt;25&lt;/font&gt;" style="whiteSpace=wrap;html=1;rounded=1;" vertex="1" parent="1">
          <mxGeometry x="990" y="190" width="120" height="60" as="geometry" />
        </mxCell>
        <mxCell id="E96cA3zgoJfYFh5Hif7b-54" style="edgeStyle=orthogonalEdgeStyle;rounded=0;orthogonalLoop=1;jettySize=auto;html=1;exitX=1;exitY=0.5;exitDx=0;exitDy=0;entryX=1;entryY=0.75;entryDx=0;entryDy=0;strokeColor=#3333FF;" edge="1" source="E96cA3zgoJfYFh5Hif7b-55" target="E96cA3zgoJfYFh5Hif7b-60" parent="1">
          <mxGeometry relative="1" as="geometry">
            <Array as="points">
              <mxPoint x="1140" y="300" />
              <mxPoint x="1140" y="395" />
            </Array>
          </mxGeometry>
        </mxCell>
        <mxCell id="E96cA3zgoJfYFh5Hif7b-55" value="&lt;font style=&quot;font-size: 16px;&quot;&gt;25&lt;/font&gt;" style="whiteSpace=wrap;html=1;rounded=1;" vertex="1" parent="1">
          <mxGeometry x="990" y="270" width="120" height="60" as="geometry" />
        </mxCell>
        <mxCell id="E96cA3zgoJfYFh5Hif7b-56" style="edgeStyle=orthogonalEdgeStyle;rounded=0;orthogonalLoop=1;jettySize=auto;html=1;exitX=1;exitY=0.75;exitDx=0;exitDy=0;" edge="1" source="E96cA3zgoJfYFh5Hif7b-57" parent="1">
          <mxGeometry relative="1" as="geometry">
            <mxPoint x="1150" y="155" as="targetPoint" />
          </mxGeometry>
        </mxCell>
        <mxCell id="E96cA3zgoJfYFh5Hif7b-57" value="&lt;div style=&quot;text-align: left;&quot;&gt;&lt;span style=&quot;font-size: 16px; font-family: &amp;quot;Comic Sans MS&amp;quot;; background-color: initial;&quot;&gt;public区&lt;/span&gt;&lt;/div&gt;&lt;font face=&quot;Comic Sans MS&quot; style=&quot;font-size: 16px;&quot;&gt;&lt;div style=&quot;&quot;&gt;&lt;span style=&quot;background-color: initial;&quot;&gt;display_del()&lt;/span&gt;&lt;/div&gt;&lt;/font&gt;" style="whiteSpace=wrap;html=1;rounded=1;align=center;" vertex="1" parent="1">
          <mxGeometry x="990" y="110" width="120" height="60" as="geometry" />
        </mxCell>
        <mxCell id="E96cA3zgoJfYFh5Hif7b-58" value="" style="edgeStyle=orthogonalEdgeStyle;rounded=0;orthogonalLoop=1;jettySize=auto;html=1;" edge="1" source="E96cA3zgoJfYFh5Hif7b-59" target="E96cA3zgoJfYFh5Hif7b-60" parent="1">
          <mxGeometry relative="1" as="geometry" />
        </mxCell>
        <mxCell id="E96cA3zgoJfYFh5Hif7b-59" value="&lt;font style=&quot;font-size: 16px;&quot; face=&quot;Comic Sans MS&quot;&gt;bind列表&lt;/font&gt;" style="rounded=1;whiteSpace=wrap;html=1;" vertex="1" parent="1">
          <mxGeometry x="840" y="350" width="120" height="60" as="geometry" />
        </mxCell>
        <mxCell id="E96cA3zgoJfYFh5Hif7b-60" value="&lt;font style=&quot;font-size: 14px;&quot; face=&quot;Comic Sans MS&quot;&gt;placeholders::_2&lt;br&gt;placeholders::_1&lt;br&gt;ref(n)&lt;br&gt;m&lt;/font&gt;" style="whiteSpace=wrap;html=1;rounded=1;" vertex="1" parent="1">
          <mxGeometry x="990" y="350" width="120" height="60" as="geometry" />
        </mxCell>
        <mxCell id="E96cA3zgoJfYFh5Hif7b-61" value="display_del" style="rounded=1;whiteSpace=wrap;html=1;fillColor=none;strokeColor=none;fontSize=18;fontFamily=Comic Sans MS;" vertex="1" parent="1">
          <mxGeometry x="1235" y="40" width="120" height="60" as="geometry" />
        </mxCell>
        <mxCell id="E96cA3zgoJfYFh5Hif7b-62" value="" style="rounded=1;whiteSpace=wrap;html=1;arcSize=5;" vertex="1" parent="1">
          <mxGeometry x="1150" y="100" width="290" height="340" as="geometry" />
        </mxCell>
        <mxCell id="E96cA3zgoJfYFh5Hif7b-63" value="" style="edgeStyle=orthogonalEdgeStyle;rounded=0;orthogonalLoop=1;jettySize=auto;html=1;" edge="1" source="E96cA3zgoJfYFh5Hif7b-64" target="E96cA3zgoJfYFh5Hif7b-65" parent="1">
          <mxGeometry relative="1" as="geometry" />
        </mxCell>
        <mxCell id="E96cA3zgoJfYFh5Hif7b-64" value="&lt;font style=&quot;font-size: 16px;&quot; face=&quot;Comic Sans MS&quot;&gt;类地址&lt;/font&gt;" style="rounded=1;whiteSpace=wrap;html=1;" vertex="1" parent="1">
          <mxGeometry x="1160" y="110" width="120" height="60" as="geometry" />
        </mxCell>
        <mxCell id="E96cA3zgoJfYFh5Hif7b-65" value="&lt;font style=&quot;font-size: 16px;&quot; face=&quot;Comic Sans MS&quot;&gt;&amp;amp;a&lt;/font&gt;" style="rounded=1;whiteSpace=wrap;html=1;" vertex="1" parent="1">
          <mxGeometry x="1310" y="110" width="120" height="60" as="geometry" />
        </mxCell>
        <mxCell id="E96cA3zgoJfYFh5Hif7b-66" value="" style="edgeStyle=orthogonalEdgeStyle;rounded=0;orthogonalLoop=1;jettySize=auto;html=1;" edge="1" source="E96cA3zgoJfYFh5Hif7b-67" target="E96cA3zgoJfYFh5Hif7b-68" parent="1">
          <mxGeometry relative="1" as="geometry">
            <Array as="points">
              <mxPoint x="1290" y="220" />
              <mxPoint x="1290" y="310" />
            </Array>
          </mxGeometry>
        </mxCell>
        <mxCell id="E96cA3zgoJfYFh5Hif7b-67" value="&lt;font style=&quot;font-size: 16px;&quot; face=&quot;Comic Sans MS&quot;&gt;形参列表&lt;/font&gt;" style="rounded=1;whiteSpace=wrap;html=1;" vertex="1" parent="1">
          <mxGeometry x="1160" y="190" width="120" height="60" as="geometry" />
        </mxCell>
        <mxCell id="E96cA3zgoJfYFh5Hif7b-68" value="" style="whiteSpace=wrap;html=1;rounded=1;" vertex="1" parent="1">
          <mxGeometry x="1300" y="190" width="130" height="250" as="geometry" />
        </mxCell>
        <mxCell id="E96cA3zgoJfYFh5Hif7b-69" value="&lt;font face=&quot;Comic Sans MS&quot; style=&quot;font-size: 14px;&quot;&gt;placeholders::_2&lt;/font&gt;" style="whiteSpace=wrap;html=1;rounded=1;" vertex="1" parent="1">
          <mxGeometry x="1310" y="200" width="112.5" height="50" as="geometry" />
        </mxCell>
        <mxCell id="E96cA3zgoJfYFh5Hif7b-70" value="&lt;font face=&quot;Comic Sans MS&quot; style=&quot;font-size: 14px;&quot;&gt;placeholders::_1&lt;/font&gt;" style="whiteSpace=wrap;html=1;rounded=1;" vertex="1" parent="1">
          <mxGeometry x="1310" y="260" width="112.5" height="50" as="geometry" />
        </mxCell>
        <mxCell id="E96cA3zgoJfYFh5Hif7b-71" value="&lt;font face=&quot;Comic Sans MS&quot; style=&quot;font-size: 14px;&quot;&gt;引用n&lt;br&gt;进来25，结束30&lt;br&gt;&lt;/font&gt;" style="whiteSpace=wrap;html=1;rounded=1;" vertex="1" parent="1">
          <mxGeometry x="1310" y="320" width="112.5" height="50" as="geometry" />
        </mxCell>
        <mxCell id="E96cA3zgoJfYFh5Hif7b-72" value="&lt;font face=&quot;Comic Sans MS&quot; style=&quot;font-size: 14px;&quot;&gt;引用m&lt;br&gt;进来30，结束30&lt;br&gt;&lt;/font&gt;" style="whiteSpace=wrap;html=1;rounded=1;" vertex="1" parent="1">
          <mxGeometry x="1308.75" y="380" width="112.5" height="50" as="geometry" />
        </mxCell>
        <mxCell id="E96cA3zgoJfYFh5Hif7b-73" style="edgeStyle=orthogonalEdgeStyle;rounded=0;orthogonalLoop=1;jettySize=auto;html=1;exitX=0.75;exitY=1;exitDx=0;exitDy=0;entryX=0;entryY=0.5;entryDx=0;entryDy=0;startArrow=classic;startFill=1;strokeColor=#FF0000;" edge="1" source="E96cA3zgoJfYFh5Hif7b-60" target="E96cA3zgoJfYFh5Hif7b-72" parent="1">
          <mxGeometry relative="1" as="geometry">
            <Array as="points">
              <mxPoint x="1080" y="430" />
              <mxPoint x="1220" y="430" />
              <mxPoint x="1220" y="405" />
            </Array>
          </mxGeometry>
        </mxCell>
        <mxCell id="E96cA3zgoJfYFh5Hif7b-74" style="edgeStyle=orthogonalEdgeStyle;rounded=0;orthogonalLoop=1;jettySize=auto;html=1;exitX=0.5;exitY=1;exitDx=0;exitDy=0;startArrow=classic;startFill=1;strokeColor=#FF0000;" edge="1" source="E96cA3zgoJfYFh5Hif7b-60" target="E96cA3zgoJfYFh5Hif7b-71" parent="1">
          <mxGeometry relative="1" as="geometry">
            <Array as="points">
              <mxPoint x="1050" y="420" />
              <mxPoint x="1210" y="420" />
              <mxPoint x="1210" y="345" />
            </Array>
          </mxGeometry>
        </mxCell>
        <mxCell id="E96cA3zgoJfYFh5Hif7b-75" value="" style="endArrow=classic;startArrow=classic;html=1;rounded=0;strokeColor=#FF0000;" edge="1" parent="1">
          <mxGeometry width="50" height="50" relative="1" as="geometry">
            <mxPoint x="840" y="480" as="sourcePoint" />
            <mxPoint x="910" y="480" as="targetPoint" />
          </mxGeometry>
        </mxCell>
        <mxCell id="E96cA3zgoJfYFh5Hif7b-76" value="" style="endArrow=classic;startArrow=none;html=1;rounded=0;startFill=0;strokeColor=#3333FF;" edge="1" parent="1">
          <mxGeometry width="50" height="50" relative="1" as="geometry">
            <mxPoint x="840" y="500" as="sourcePoint" />
            <mxPoint x="910" y="500" as="targetPoint" />
          </mxGeometry>
        </mxCell>
        <mxCell id="E96cA3zgoJfYFh5Hif7b-77" value="&lt;font style=&quot;font-size: 18px;&quot; face=&quot;Comic Sans MS&quot;&gt;红色双向箭头代表引用&lt;br&gt;蓝色单项箭头代表值传递&lt;br&gt;&lt;/font&gt;" style="rounded=1;whiteSpace=wrap;html=1;fillColor=none;strokeColor=none;fontSize=18;align=left;" vertex="1" parent="1">
          <mxGeometry x="915" y="460" width="205" height="60" as="geometry" />
        </mxCell>
        <mxCell id="E96cA3zgoJfYFh5Hif7b-78" value="&lt;font style=&quot;font-size: 14px;&quot; face=&quot;Comic Sans MS&quot;&gt;&lt;font style=&quot;font-size: 14px;&quot;&gt;第二次调用bind，bind列表中的n为25，m还保持30，因为是对参数的拷贝。&lt;/font&gt;n和m在display_del中都为30，但是m为值传递，输出还是按照main函数的变量&lt;/font&gt;" style="rounded=1;whiteSpace=wrap;html=1;align=left;" vertex="1" parent="1">
          <mxGeometry x="1132.5" y="450" width="297.5" height="80" as="geometry" />
        </mxCell>
      </root>
    </mxGraphModel>
  </diagram>
</mxfile>
